<?xml version="1.0" encoding="UTF-8" standalone="no"?>
<!-- Created with Inkscape (http://www.inkscape.org/) -->

<svg
   xmlns:dc="http://purl.org/dc/elements/1.1/"
   xmlns:cc="http://creativecommons.org/ns#"
   xmlns:rdf="http://www.w3.org/1999/02/22-rdf-syntax-ns#"
   xmlns:svg="http://www.w3.org/2000/svg"
   xmlns="http://www.w3.org/2000/svg"
   xmlns:sodipodi="http://sodipodi.sourceforge.net/DTD/sodipodi-0.dtd"
   xmlns:inkscape="http://www.inkscape.org/namespaces/inkscape"
   width="11in"
   height="8.5in"
   viewBox="0 0 990 765"
   id="svg3338"
   version="1.1"
   inkscape:version="0.48.5 r10040"
   sodipodi:docname="RobotArmPath.svg">
  <defs
     id="defs3340" />
  <sodipodi:namedview
     id="base"
     pagecolor="#ffffff"
     bordercolor="#666666"
     borderopacity="1.0"
     inkscape:pageopacity="0.0"
     inkscape:pageshadow="2"
     inkscape:zoom="0.5"
     inkscape:cx="476.40034"
     inkscape:cy="450.12"
     inkscape:document-units="cm"
     inkscape:current-layer="layer1"
     showgrid="false"
     units="in"
     inkscape:window-width="1280"
     inkscape:window-height="656"
     inkscape:window-x="0"
     inkscape:window-y="36"
     inkscape:window-maximized="1"
     showguides="false">
    <inkscape:grid
       type="xygrid"
       id="grid3025"
       empspacing="5"
       visible="true"
       enabled="true"
       snapvisiblegridlinesonly="true" />
  </sodipodi:namedview>
  <metadata
     id="metadata3343">
    <rdf:RDF>
      <cc:Work
         rdf:about="">
        <dc:format>image/svg+xml</dc:format>
        <dc:type
           rdf:resource="http://purl.org/dc/dcmitype/StillImage" />
        <dc:title />
      </cc:Work>
    </rdf:RDF>
  </metadata>
  <g
     inkscape:label="Layer 1"
     inkscape:groupmode="layer"
     id="layer1"
     transform="translate(0,-287.3622)">
    <path
       style="fill:none;stroke:#000000;stroke-width:1px;stroke-linecap:butt;stroke-linejoin:miter;stroke-opacity:1"
       d="m 386,440.3622 c -14.0398,14.38096 -31.4601,24.84877 -52,26 -22.2758,2.77265 -47.26161,8.94225 -58.14503,30.88828 -12.33001,18.3852 -23.42409,38.12635 -31.18649,58.58562 -9.27164,13.87243 -8.70566,33.06324 -13.6979,49.27748 -5.67084,28.31716 -6.78953,57.92504 -3.3656,86.59846 1.69274,22.97941 15.59583,42.70219 30.97509,56.85414 13.60451,30.25565 36.48339,55.99287 66.34628,70.90911 27.48956,14.2285 44.8931,44.12524 76.60805,50.59724 45.445,10.9582 92.51837,4.82854 138.79592,6.35963 23.23293,2.79885 42.47931,-12.03839 61.84172,-20.16049 15.52751,-18.08412 27.99905,-39.15736 50.25895,-49.80756 25.3814,-19.40483 47.6846,-44.06841 56.77343,-75.33186 6.69551,-16.28493 10.46564,-13.1969 13.90294,-33.41665 10.93424,-34.89811 14.99558,-71.54078 17.2884,-107.87916 -3.29901,-17.65296 -5.82729,-36.26348 -13.22208,-52.58604 -7.75939,-18.08151 -27.17333,-32.65153 -42.95234,-46.90251 C 666.89488,478.24606 654.32439,462.86894 634.47985,458.89285 612.88966,447.43045 588.88921,437.78872 564,440.3622 537.20472,435.46349 509.54149,439.42053 485.18721,451.66105 462.31533,461.76907 435.90098,467.15162 420,488.3622 c -16.70662,21.95934 -37.83386,42.29704 -43.54002,70.32755 -7.64027,26.31459 -20.38012,54.58447 -12.7951,82.1681 8.9455,20.24039 22.69143,38.32155 33.17086,56.18369 19.43495,10.49492 28.60383,33.34764 49.16426,41.32066 18.71475,15.606 42.19402,19.83686 65.79651,21.45501 34.16584,1.00772 70.44498,4.553 102.95621,-7.64888 13.59404,-7.95751 22.59451,-19.90278 29.74469,-34.15846 4.88642,-6.78032 9.03742,-20.33069 12.24376,-22.58961 1.40359,-22.25982 9.43959,-46.18023 2.28512,-68.56768 -6.29606,-17.09605 -6.85896,-33.37822 -20.74273,-46.78255 -9.41607,-22.56375 -42.48314,-19.07012 -55.25578,-25.65184 -19.44447,-3.28461 -40.12255,-10.47667 -59.62814,-4.95906 C 512.91058,559.83081 499.0339,564.21972 496,578.3622 c -7.26,16.2875 -20.11112,34.80562 -14.78149,43.86496 6.23705,12.01035 14.94636,13.38549 26.78149,20.13504 13.25033,11.94933 32.4775,7.04306 48,8 -3.84857,1.33486 -7.67506,-0.58435 2,0"
       id="path2993"
       inkscape:connector-curvature="0" />
  </g>
</svg>
